<svg width="183" height="148" viewBox="0 0 183 148" fill="none" xmlns="http://www.w3.org/2000/svg">
<path d="M19.7261 97H16.4941V90.2775H10.1918V97H6.9598V81.3142H10.1918V87.6704H16.4941V81.3142H19.7261V97ZM31.9968 90.2021H25.7914V94.4036H33.0742V97H22.5595V81.3142H33.0526V83.9321H25.7914V87.6704H31.9968V90.2021ZM43.8259 93.768H38.1591L37.0818 97H33.6451L39.4842 81.3142H42.4792L48.3506 97H44.914L43.8259 93.768ZM39.0318 91.1501H42.9532L40.9817 85.2787L39.0318 91.1501ZM54.7715 93.1109L58.3266 81.3142H61.9249L56.4629 97H53.0909L47.6504 81.3142H51.2379L54.7715 93.1109ZM72.849 90.2021H66.6436V94.4036H73.9263V97H63.4116V81.3142H73.9048V83.9321H66.6436V87.6704H72.849V90.2021ZM88.5779 97H85.346L79.0544 86.6792V97H75.8224V81.3142H79.0544L85.3567 91.6565V81.3142H88.5779V97Z" fill="#B7E3EE"/>
<path d="M138.025 93.2145C138.025 92.3454 137.72 91.6595 137.11 91.1568C136.499 90.6468 135.382 90.1656 133.759 89.7132C132.136 89.2535 130.951 88.7543 130.204 88.2157C129.141 87.4544 128.61 86.456 128.61 85.2207C128.61 84.0213 129.102 83.0481 130.086 82.3012C131.077 81.547 132.341 81.17 133.878 81.17C134.919 81.17 135.849 81.3711 136.668 81.7733C137.494 82.1755 138.133 82.7357 138.586 83.4539C139.038 84.1721 139.264 84.9729 139.264 85.8563H137.928C137.928 84.7862 137.562 83.9279 136.83 83.2815C136.097 82.628 135.113 82.3012 133.878 82.3012C132.678 82.3012 131.723 82.5705 131.012 83.1092C130.301 83.6406 129.946 84.3373 129.946 85.1992C129.946 85.9964 130.265 86.6464 130.904 87.1491C131.544 87.6519 132.567 88.0972 133.975 88.485C135.382 88.8657 136.449 89.2643 137.174 89.6808C137.9 90.0902 138.446 90.5822 138.812 91.1568C139.178 91.7313 139.361 92.4101 139.361 93.1929C139.361 94.4283 138.866 95.4194 137.875 96.1663C136.891 96.9133 135.591 97.2868 133.975 97.2868C132.869 97.2868 131.852 97.0892 130.926 96.6942C130.007 96.2992 129.306 95.7462 128.825 95.0351C128.351 94.3241 128.114 93.5089 128.114 92.5896H129.439C129.439 93.6957 129.852 94.5683 130.678 95.2075C131.504 95.8467 132.603 96.1663 133.975 96.1663C135.196 96.1663 136.176 95.897 136.916 95.3583C137.656 94.8197 138.025 94.1051 138.025 93.2145ZM150.889 89.5516H143.552V95.9509H151.988V97.0713H142.227V81.3854H151.934V82.5166H143.552V88.4311H150.889V89.5516ZM166.467 97.0713H165.142L156.125 83.6478V97.0713H154.789V81.3854H156.125L165.152 94.8197V81.3854H166.467V97.0713ZM180.774 82.5166H175.398V97.0713H174.073V82.5166H168.708V81.3854H180.774V82.5166Z" fill="#71CCDB"/>
<path d="M91.3223 50.7839H96.4815V47.0878H100.139V43.3916H103.835V38.3864H106.145V33.7662L108.763 30.9941L126.166 49.3209L125.627 71.4592L109.148 84.8193L125.204 75.9639L124.626 94.2906L109.225 105.302L124.703 97.3323L124.087 117.507L108.725 128.903L93.3628 117.738L92.8623 105.148L106.068 113.118L92.8238 102.53L91.6303 60.5633L106.915 69.9962L91.3223 57.9067V50.7839Z" fill="#DDECF2"/>
<path d="M108.765 30.9941L126.168 49.3209L125.629 71.4592L109.15 84.8193L125.205 75.9639L124.628 94.2906L109.227 105.302L124.705 97.3323L124.089 117.507L108.727 128.903L108.765 30.9941Z" fill="#7ECADD"/>
<path d="M124.705 97.332L117.197 101.221C119.122 108.343 121.432 113.31 124.205 114.273L124.705 97.332Z" fill="#B7E3EE"/>
<path d="M125.628 71.4592L126.167 49.3209L108.765 30.9941C108.765 30.9941 109.958 58.0992 113.346 81.4311L125.628 71.4592Z" fill="#96D2E2"/>
<path d="M116.812 99.8729L124.589 94.2902L125.166 76.002L113.462 82.4702C114.424 88.7459 115.541 94.7907 116.812 99.8729Z" fill="#9DD6EA"/>
<path d="M92.2089 80.2757L91.6313 60.5244L106.916 69.9573L106.185 90.9406L92.2089 80.2757Z" fill="#CAE7EF"/>
<path d="M108.494 147.999L108.609 30.9932C108.571 30.9932 113.922 111.5 108.494 147.999Z" fill="#E0E0E0"/>
<path d="M108.494 148L108.61 30.9941C108.571 30.9941 103.142 111.501 108.494 148Z" fill="white"/>
<path d="M93.1325 34.6519H88.5508V39.2335H93.1325V34.6519Z" fill="#B7E3EE"/>
<path d="M88.5894 30.6094H86.2793V32.9195H88.5894V30.6094Z" fill="#9DD6EA"/>
<path d="M86.5109 5.2749H80.9282V10.8576H86.5109V5.2749Z" fill="#7ECADD"/>
<path d="M103.297 22.0234H97.7139V27.6062H103.297V22.0234Z" fill="#A8E4FD"/>
<path d="M86.5109 16.4399H80.9282V22.0227H86.5109V16.4399Z" fill="#76BDE5"/>
<path d="M80.3122 11.4731H76V15.7853H80.3122V11.4731Z" fill="#A8E4FD"/>
<path d="M96.3286 17.8257H93.4795V20.6748H96.3286V17.8257Z" fill="#7ECADD"/>
<path d="M79.542 23.4087H76.6929V26.2578H79.542V23.4087Z" fill="#76BDE5"/>
<path d="M89.8215 20.0205H84.2388V25.6032H89.8215V20.0205Z" fill="#A8E4FD"/>
<path d="M99.2926 38.0786H95.2114V42.1598H99.2926V38.0786Z" fill="#A8E4FD"/>
<path d="M104.106 33.8438H101.719V36.2308H104.106V33.8438Z" fill="#7ECADD"/>
<path d="M91.0534 24.2954H88.5508V26.798H91.0534V24.2954Z" fill="#7ECADD"/>
<path d="M96.6364 41.0806H94.1338V43.5832H96.6364V41.0806Z" fill="#9DD6EA"/>
<path d="M98.8693 26.4507H93.2866V32.0334H98.8693V26.4507Z" fill="#7ECADD"/>
<path d="M79.5805 0H76.7314V2.84911H79.5805V0Z" fill="#B7E3EE"/>
</svg>
