<svg width="72" height="75" viewBox="0 0 72 75" fill="none" xmlns="http://www.w3.org/2000/svg">
<path d="M57.9578 51.3964L61.6818 56.0351H50.3138V45.9084C53.0578 45.9084 55.8018 45.9084 58.6111 45.9084C59.5911 45.9084 60.5711 45.7124 61.4858 45.5164C67.7578 43.8831 72.2005 37.3498 71.2205 30.6205C70.5018 25.7205 67.1698 21.5391 62.5311 19.9711L33.0005 35.2591L58.4805 17.2271C57.8925 9.64845 52.7311 2.91912 44.8911 0.697782C36.6591 -1.65422 27.6431 2.00445 23.3311 10.6938C21.5018 9.77911 19.5418 9.45245 17.5818 9.84445C13.4005 10.6938 10.9178 13.3071 9.80714 17.2924C9.67648 17.8151 9.41513 18.0111 8.9578 18.2724C3.6658 20.5591 0.66048 24.5445 0.0724801 30.2938C-0.254187 33.4298 0.529809 36.4351 2.29381 39.1138C5.03781 43.2951 8.89247 45.8431 13.9231 45.9084C16.1445 45.9084 18.3658 45.9084 20.5871 45.9084V56.0351H8.17381L11.8978 51.4618L10.0685 49.6324L1.18313 57.4724L10.0685 65.3124L11.8978 63.4831L8.17381 58.8445H23.3965V45.9084C27.0552 45.9084 30.6485 45.9084 34.3071 45.9084V67.5991L29.7338 63.8751L27.9045 65.7045L35.7445 74.5898L43.5845 65.7045L41.7551 63.8751L37.1165 67.5991V45.9084C40.5792 45.9084 44.0418 45.9084 47.5045 45.9084V58.8445H61.6818L57.9578 63.4178L59.7871 65.2471L68.6725 57.4071L59.7871 49.5671L57.9578 51.3964Z" fill="#7ECADD"/>
</svg>
