<svg width="76" height="82" viewBox="0 0 76 82" fill="none" xmlns="http://www.w3.org/2000/svg">
<path d="M28.0945 16.1373L28.7478 39.1347L35.9998 44.9493L28.7478 40.6373L29.0091 47.4973L37.4371 53.6387L45.8651 47.3667L46.1918 36.3253L37.6984 40.7027L46.1265 34.6267L46.4531 24.6307L37.6331 29.4653L46.7145 22.148L46.9758 9.996L37.4371 0L27.8984 10.78V14.7L36.4571 21.364L28.0945 16.1373Z" fill="#7ECADD"/>
<path d="M75.1333 53.051L66.1173 44.6883L65.856 44.819V44.6883L49.1306 36.6523V38.351L63.896 45.603L37.436 58.2777L10.976 45.603L25.7413 38.351V36.6523L9.01599 44.6883L0 53.051L9.01599 57.363V67.555L37.436 81.1443L65.856 67.555V57.4937L75.1333 53.051Z" fill="#7ECADD"/>
</svg>
