<svg width="51" height="55" viewBox="0 0 51 55" fill="none" xmlns="http://www.w3.org/2000/svg">
<path d="M41.0285 34.3001C42.0085 32.6667 42.7272 31.3601 43.6418 29.8574C41.8125 29.8574 40.3098 29.8574 38.4805 29.8574C39.3951 31.2948 40.1138 32.6667 41.0285 34.3001Z" fill="#7ECADD"/>
<path d="M28.0951 9.66943L31.3618 44.1654L21.7578 54.2921H50.2431V9.66943H28.0951ZM47.1071 29.7921C46.9111 29.8574 46.6498 30.0534 46.5192 30.3148C45.4738 32.3401 44.4285 34.3001 43.3178 36.4561C44.1018 37.1094 45.1472 37.8934 46.1925 38.7428C47.1072 39.4614 47.3031 40.3108 46.7151 41.0294C46.1271 41.8134 45.3431 41.8134 44.3631 41.0948C43.2525 40.2454 42.1418 39.3308 41.0311 38.4814C39.9205 39.3961 38.8751 40.2454 37.7645 41.0948C36.8498 41.8134 36.0005 41.8134 35.4125 41.0294C34.8245 40.3108 35.0204 39.4614 35.9351 38.7428C36.9151 37.9588 37.8952 37.1748 38.6792 36.5214C37.6338 34.3654 36.6538 32.3401 35.6084 30.3801C35.4778 30.1188 35.2164 29.9228 34.9551 29.8574C34.0404 29.6614 33.5178 29.1388 33.5831 28.2241C33.6485 27.3094 34.3018 26.8521 35.2165 26.9174C36.5885 26.9174 37.9605 26.9174 39.3978 26.9174C39.6591 25.7414 39.1365 23.9774 41.0311 23.9774C42.8605 23.9774 42.4031 25.6108 42.5338 26.9174C43.9711 26.9174 45.3431 26.9174 46.7151 26.9174C47.6951 26.9174 48.3485 27.2441 48.4792 28.2241C48.6752 29.0734 48.0871 29.5961 47.1071 29.7921Z" fill="#7ECADD"/>
<path d="M13.3262 19.4038C12.8689 21.4945 12.4769 23.5198 12.0195 25.6758C13.1302 25.6758 14.1102 25.6758 15.1556 25.6758C14.6982 23.5198 14.3062 21.4945 13.9142 19.4691C13.7182 19.4691 13.5222 19.4038 13.3262 19.4038Z" fill="#7ECADD"/>
<path d="M21.0374 0L0 5.81467V44.2307L29.0733 43.4467L21.0374 0ZM18.6853 35.28C17.7707 35.4107 17.052 35.0187 16.856 34.0387C16.464 32.4053 16.1374 30.772 15.8107 29.008H11.368C11.1067 30.38 10.8453 31.752 10.5187 33.1893C10.388 33.712 10.3227 34.4307 9.93071 34.692C9.47338 35.0187 9.016 35.4107 8.16667 35.084C7.31733 34.7573 7.18665 33.908 7.25198 33.3853C7.44798 31.752 7.84 30.0533 8.16667 28.42C8.88533 24.9573 9.5387 21.4293 10.3227 17.9667C10.584 16.5293 11.0413 16.268 12.4133 16.2027C13.2627 16.2027 14.112 16.2027 14.9614 16.2027C16.072 16.2027 16.66 16.7253 16.856 17.7707C17.7707 22.54 18.7507 27.244 19.7307 32.0133C19.8614 32.536 19.9267 33.0587 19.992 33.5813C19.992 34.4307 19.4693 35.1493 18.6853 35.28Z" fill="#7ECADD"/>
</svg>
