<svg width="62" height="62" viewBox="0 0 62 62" fill="none" xmlns="http://www.w3.org/2000/svg">
<path d="M22.5391 3.65867V11.172L53.8337 8.36266V39.4613H61.5431V0.457331V0L22.5391 3.65867Z" fill="#7ECADD"/>
<path d="M11.957 15.0269V21.0376L42.0757 18.1629L41.8143 50.7643H50.961V15.8109V11.4336L46.649 11.8256L11.957 15.0269Z" fill="#7ECADD"/>
<path d="M34.6267 22.2787L0 25.4801V61.2174H39.004V26.1987L38.8733 21.8867L34.6267 22.2787ZM20.3186 51.8747C18.5546 51.8747 16.856 51.4174 15.288 50.5681L10.0613 51.9401C9.80002 52.0054 9.60403 51.8094 9.66936 51.5481L11.0413 46.3214C10.192 44.7534 9.73468 42.9894 9.73468 41.2254C9.73468 34.1041 16.7906 28.6814 24.2386 31.3601C26.9826 32.3401 29.1386 34.5614 30.1186 37.2401C32.8626 44.8187 27.3746 51.8747 20.3186 51.8747Z" fill="#7ECADD"/>
</svg>
