<svg width="83" height="68" viewBox="0 0 83 68" fill="none" xmlns="http://www.w3.org/2000/svg">
<path d="M61.2827 9.86533L58.4733 1.764L57.82 0L56.056 0.588001L1.76401 19.6L0 20.3187L0.588016 22.0173L3.98536 31.752L4.83468 34.104L11.4987 53.1813C11.564 53.312 11.6947 53.3773 11.8254 53.312L16.3333 51.744V44.6227V42.14V37.3053V26.0027C16.3333 25.4147 16.7907 24.9573 17.3787 24.9573H66.5747L61.2827 9.86533ZM55.7947 16.3333L45.6027 19.9267C45.3414 20.0573 45.0147 19.8613 44.884 19.6L42.14 11.76C42.0093 11.4987 42.2053 11.172 42.4667 11.0413L52.6587 7.448C52.92 7.31733 53.2467 7.51333 53.3773 7.77467L56.1214 15.6147C56.252 15.876 56.1214 16.2027 55.7947 16.3333Z" fill="#7ECADD"/>
<path d="M21.3672 29.9883V42.1403L82.6498 40.4416V29.9883H21.3672Z" fill="#7ECADD"/>
<path d="M21.3672 65.0719L82.6498 67.8159V61.2172V52.3319V46.3212L21.3672 44.6226V65.0719Z" fill="#7ECADD"/>
</svg>
