<svg width="83" height="53" viewBox="0 0 83 53" fill="none" xmlns="http://www.w3.org/2000/svg">
<path d="M72.1307 23.0246L38.0267 40.6646L67.4267 19.8886C66.7081 11.1339 60.7627 3.42456 51.7467 0.811227C42.2734 -1.93277 31.8201 2.37923 26.8547 12.3099C24.7641 11.2646 22.4774 10.8726 20.2561 11.3299C15.4867 12.2446 12.6121 15.3152 11.3054 19.9539C11.1094 20.5419 10.8481 20.8032 10.3254 21.0646C4.24939 23.6779 0.721389 28.3166 0.0680558 34.9152C-0.258611 38.5739 0.590719 42.0366 2.61605 45.1072C5.75205 49.9419 10.1947 52.8819 16.0094 52.8819C33.1921 53.0126 50.3747 52.9472 67.6227 52.8819C68.7334 52.8819 69.844 52.6859 70.9547 52.4246C78.2067 50.5299 83.3027 42.9512 82.192 35.2419C81.3427 29.6232 77.4227 24.7886 72.1307 23.0246Z" fill="#7ECADD"/>
</svg>
