<svg width="78" height="67" viewBox="0 0 78 67" fill="none" xmlns="http://www.w3.org/2000/svg">
<path d="M77.616 7.644L40.6373 0L0 0.784003V54.6187H24.6306L16.072 66.1827L41.748 54.6187H73.1733L77.616 7.644ZM50.2413 18.62C54.7493 18.2933 58.408 21.952 58.0813 26.46C57.82 29.988 54.9453 32.8627 51.4173 33.124C46.9093 33.4507 43.2506 29.792 43.5773 25.284C43.904 21.756 46.7133 18.8813 50.2413 18.62ZM30.2494 8.88534C36.1294 8.49334 40.964 13.328 40.572 19.208C40.2453 24.0427 36.3253 27.9627 31.4906 28.2893C25.6106 28.6813 20.776 23.8467 21.168 17.9667C21.4947 13.132 25.4147 9.212 30.2494 8.88534ZM47.04 47.236H38.808H14.7653C14.7653 38.2853 22.0174 31.0987 30.9027 31.0987C36.1947 31.0987 40.8333 33.6467 43.7733 37.5013C45.7333 36.064 48.216 35.1493 50.8294 35.1493C57.4934 35.1493 62.8506 40.572 62.8506 47.1707H47.04V47.236Z" fill="#7ECADD"/>
</svg>
